<?xml version="1.0" encoding="UTF-8"?><svg id="Layer_1" xmlns="http://www.w3.org/2000/svg" viewBox="0 0 1120 305"><defs><style>.cls-1{fill:#fff;}</style></defs><g><path class="cls-1" d="m257.12,111.62c0-31.23,18.74-52.94,48.18-52.94,21.86,0,38.07,12.05,42.38,32.87h-8.62c-4.31-16.36-16.51-25.43-34.06-25.43-24.09,0-39.56,18.89-39.56,45.51s15.47,45.51,38.81,45.51,37.18-15.47,37.18-35.84v-4.46h-34.2v-7.44h41.94v54.28h-6.99l-.45-23.05c-4.46,12.49-16.8,23.94-37.62,23.94-27.81,0-46.99-21.56-46.99-52.94Z"/><path class="cls-1" d="m366.18,59.57h7.58v104.1h-7.58V59.57Z"/><path class="cls-1" d="m385.24,125.9c0-22.75,14.87-38.52,36.14-38.52s36.29,15.76,36.29,38.52-15.02,38.67-36.29,38.67-36.14-15.76-36.14-38.67Zm64.54,0c0-18.59-11.6-31.82-28.4-31.82s-28.4,13.24-28.4,31.82,11.6,31.83,28.4,31.83,28.4-13.09,28.4-31.83Z"/><path class="cls-1" d="m541.2,125.9c0,22.9-14.87,38.67-35.54,38.67-14.13,0-24.24-7.14-28.7-17.99l-1.19,17.1h-6.54V59.57h7.58v46.25c4.76-10.71,14.72-18.44,28.85-18.44,20.67,0,35.54,14.87,35.54,38.52Zm-7.73,0c0-18.59-11.6-31.82-28.4-31.82s-28.4,13.24-28.4,31.68,11.6,31.97,28.4,31.97,28.4-13.09,28.4-31.83Z"/><path class="cls-1" d="m620.82,156.68v6.99h-4.46c-8.92,0-12.64-3.87-12.34-12.79v-2.68c-4.61,9.37-13.68,16.36-29,16.36s-26.62-8.18-26.62-21.56c0-14.13,10.41-22.46,29.74-22.46h25.58v-6.54c0-12.49-8.03-19.93-22.16-19.93-12.79,0-20.82,6.1-22.75,15.32h-7.58c1.93-13.68,13.38-22.01,30.63-22.01,18.89,0,29.45,9.67,29.45,26.92v35.1c0,5.8,2.23,7.29,6.69,7.29h2.82Zm-17.1-29.59h-26.17c-13.98,0-21.41,5.5-21.41,15.47,0,9.37,7.44,15.47,19.48,15.47,17.85,0,28.11-10.41,28.11-24.84v-6.1Z"/><path class="cls-1" d="m627.93,59.57h7.58v104.1h-7.58V59.57Z"/><path class="cls-1" d="m692.32,59.57h61.86v7.44h-53.83v41.19h44.91v7.44h-44.91v48.03h-8.03V59.57Z"/><path class="cls-1" d="m756.19,125.45c0-22.31,14.13-38.07,34.8-38.07s34.05,13.09,34.8,35.54c0,.89-.15,2.08-.15,3.12h-61.57v1.34c.3,17.55,10.86,30.34,27.66,30.34,12.34,0,22.31-7.29,25.28-19.04h7.73c-3.27,15.17-15.91,25.88-32.42,25.88-21.42,0-36.14-15.47-36.14-39.11Zm61.42-5.8c-1.19-16.51-11.75-25.58-26.47-25.58-13.83,0-25.28,10.26-26.47,25.58h52.94Z"/><path class="cls-1" d="m871.88,88.27v7.29h-5.5c-17.7,0-21.71,14.57-21.71,29.89v38.22h-7.58v-75.4h6.54l1.19,15.02c3.12-8.33,9.07-15.02,23.05-15.02h4.01Z"/><path class="cls-1" d="m889.84,95.26h-14.28v-6.99h14.28v-21.12h7.58v21.12h20.37v6.99h-20.37v50.71c0,7.73,2.83,10.71,10.71,10.71h10.41v6.99h-11c-12.79,0-17.7-5.5-17.7-17.55v-50.86Z"/><path class="cls-1" d="m924.76,67.01c0-3.12,2.38-5.35,5.35-5.35s5.35,2.23,5.35,5.35-2.38,5.35-5.35,5.35-5.35-2.23-5.35-5.35Zm1.49,21.27h7.58v75.4h-7.58v-75.4Z"/><path class="cls-1" d="m948.51,59.57h7.58v104.1h-7.58V59.57Z"/><path class="cls-1" d="m969.34,67.01c0-3.12,2.38-5.35,5.35-5.35s5.35,2.23,5.35,5.35-2.38,5.35-5.35,5.35-5.35-2.23-5.35-5.35Zm1.49,21.27h7.58v75.4h-7.58v-75.4Z"/><path class="cls-1" d="m999.16,95.26h-14.28v-6.99h14.28v-21.12h7.58v21.12h20.37v6.99h-20.37v50.71c0,7.73,2.83,10.71,10.71,10.71h10.41v6.99h-11c-12.79,0-17.7-5.5-17.7-17.55v-50.86Z"/><path class="cls-1" d="m1031.74,88.27h8.18l26.17,65.58,25.73-65.58h8.18l-36.14,89.38c-4.76,11.9-7.14,15.76-17.25,15.76h-11.6v-6.99h9.52c7.73,0,9.07-2.23,12.49-10.56l4.91-12.19-30.19-75.4Z"/></g><path class="cls-1" d="m115.82,26.75c-49.28-3.51-92.08,33.59-95.59,82.87-3.51,49.28,33.59,92.08,82.87,95.59,49.28,3.51,92.08-33.59,95.59-82.87,3.51-49.28-33.59-92.08-82.87-95.59Zm-9.03,126.73c-20.71-1.48-36.31-19.46-34.83-40.17,1.48-20.71,19.46-36.31,40.17-34.83,20.71,1.48,36.31,19.46,34.83,40.17-1.48,20.71-19.46,36.31-40.17,34.83Zm110.99,124.91c-20.71-1.48-36.31-19.46-34.83-40.17,1.48-20.71,19.46-36.31,40.17-34.83,20.71,1.48,36.31,19.46,34.83,40.17-1.48,20.71-19.46,36.31-40.17,34.83Z"/></svg>